M48
; DRILL file {KiCad (6.0.5)} date Fri Jul 29 16:30:48 2022
; FORMAT={-:-/ absolute / inch / decimal}
; #@! TF.CreationDate,2022-07-29T16:30:48+10:00
; #@! TF.GenerationSoftware,Kicad,Pcbnew,(6.0.5)
; #@! TF.FileFunction,Plated,1,2,PTH
FMAT,2
INCH
; #@! TA.AperFunction,Plated,PTH,ViaDrill
T1C0.0118
; #@! TA.AperFunction,Plated,PTH,ComponentDrill
T2C0.0276
; #@! TA.AperFunction,Plated,PTH,ComponentDrill
T3C0.0295
; #@! TA.AperFunction,Plated,PTH,ComponentDrill
T4C0.0315
; #@! TA.AperFunction,Plated,PTH,ComponentDrill
T5C0.0354
; #@! TA.AperFunction,Plated,PTH,ComponentDrill
T6C0.0394
; #@! TA.AperFunction,Plated,PTH,ComponentDrill
T7C0.0433
; #@! TA.AperFunction,Plated,PTH,ComponentDrill
T8C0.1260
%
G90
G05
T1
X2.801Y-2.9355
X2.9094Y-5.7727
X2.9651Y-3.4662
X3.0069Y-2.5606
X3.0315Y-4.0354
X3.0657Y-2.6761
X3.1422Y-5.7483
X3.2087Y-4.0157
X3.2274Y-3.4952
X3.2291Y-2.425
X3.4055Y-2.3819
X3.4707Y-2.701
X3.4807Y-4.5496
X3.5145Y-4.5177
X3.626Y-3.3046
X3.6863Y-4.0499
X3.8386Y-2.6715
X3.8707Y-2.6396
X4.0113Y-3.2444
X4.0486Y-3.2601
X4.1436Y-4.2294
X4.2286Y-2.7678
X4.2323Y-4.4748
X4.2472Y-5.6153
X4.3307Y-5.1242
X4.3804Y-3.4792
X4.3834Y-2.0547
X4.4134Y-2.963
X4.542Y-2.9335
X4.7457Y-3.1322
X4.7567Y-2.6789
X4.7749Y-4.0417
X4.8228Y-3.622
X4.8387Y-2.9284
X4.8686Y-3.1148
X4.9213Y-2.6181
X4.9358Y-2.8897
X5.001Y-3.0647
X5.077Y-3.099
X5.0918Y-2.7383
X5.1042Y-3.1145
X5.1167Y-3.0022
X5.1487Y-3.1128
X5.3111Y-3.4752
X5.3116Y-4.0097
X5.6002Y-2.9302
X5.7483Y-5.6116
X5.7793Y-5.6443
X5.7972Y-5.582
X5.8564Y-3.9776
X5.9449Y-5.604
X6.0162Y-4.0356
X6.5538Y-3.7478
X6.7913Y-2.4016
X6.811Y-2.3031
T2
X2.6354Y-4.3701
X2.687Y-3.039
X2.687Y-3.339
X2.8224Y-5.2362
X2.8232Y-5.3937
X2.8346Y-3.039
X2.8346Y-3.339
X2.9283Y-2.0768
X2.9354Y-4.3701
X3.002Y-3.039
X3.002Y-3.339
X3.1079Y-5.0689
X3.1224Y-5.2362
X3.1232Y-5.3937
X3.1791Y-3.039
X3.1791Y-3.339
X3.2283Y-2.0768
X3.2457Y-5.3937
X3.3441Y-2.0768
X3.3661Y-3.039
X3.3661Y-3.339
X3.4079Y-5.0689
X3.5236Y-3.039
X3.5236Y-3.339
X3.5457Y-5.3937
X3.6441Y-2.0768
X3.6795Y-5.3445
X3.8484Y-4.887
X3.8484Y-5.187
X3.9272Y-3.0488
X3.9272Y-3.3488
X3.9795Y-5.3445
X4.0748Y-3.0488
X4.0748Y-3.3488
X4.252Y-3.0488
X4.252Y-3.3488
X4.4291Y-3.0488
X4.4291Y-3.3488
X4.4488Y-5.6449
X4.4488Y-5.9449
X4.5965Y-3.0488
X4.5965Y-3.3488
X4.7244Y-3.0512
X4.7244Y-3.3512
X4.8622Y-3.5287
X4.8622Y-3.8287
X4.9016Y-5.165
X4.9016Y-5.465
X4.9484Y-4.3996
X4.9484Y-4.5571
X5.0787Y-5.165
X5.0787Y-5.465
X5.2484Y-4.3996
X5.2484Y-4.5571
X5.6299Y-4.3874
X5.6299Y-4.6874
X5.6693Y-5.037
X5.6693Y-5.337
X5.8169Y-4.385
X5.8169Y-4.685
X5.8319Y-2.0669
X5.9646Y-3.4008
X5.9646Y-3.7008
X6.0311Y-4.7146
X6.1122Y-2.9701
X6.1122Y-3.2701
X6.1122Y-3.4031
X6.1122Y-3.7031
X6.1319Y-2.0669
X6.265Y-3.4547
X6.3311Y-4.7146
X6.3362Y-2.0669
X6.3929Y-2.9921
X6.565Y-3.4547
X6.6362Y-2.0669
X6.6929Y-2.9921
T3
X5.1772Y-4.1776
X5.2783Y-4.1776
X5.374Y-4.1776
X5.5453Y-4.1776
X5.6425Y-4.1776
X5.7343Y-4.1776
T4
X2.7559Y-4.6483
X2.7559Y-4.7468
X2.7707Y-2.2199
X2.7707Y-2.8199
X2.7805Y-3.5486
X2.7805Y-4.1486
X2.8337Y-5.5583
X2.8337Y-5.8583
X2.8707Y-2.2199
X2.8707Y-2.8199
X2.8805Y-3.5486
X2.8805Y-4.1486
X2.9337Y-5.5583
X2.9337Y-5.8583
X2.9707Y-2.2199
X2.9707Y-2.8199
X2.9805Y-3.5486
X2.9805Y-4.1486
X3.0337Y-5.5583
X3.0337Y-5.8583
X3.0707Y-2.2199
X3.0707Y-2.8199
X3.0805Y-3.5486
X3.0805Y-4.1486
X3.1337Y-5.5583
X3.1337Y-5.8583
X3.1707Y-2.2199
X3.1707Y-2.8199
X3.1805Y-3.5486
X3.1805Y-4.1486
X3.2087Y-4.7244
X3.2337Y-5.5583
X3.2337Y-5.8583
X3.2707Y-2.2199
X3.2707Y-2.8199
X3.2805Y-3.5486
X3.2805Y-4.1486
X3.3071Y-4.7244
X3.3337Y-5.5583
X3.3337Y-5.8583
X3.3707Y-2.2199
X3.3707Y-2.8199
X3.3805Y-3.5486
X3.3805Y-4.1486
X3.4337Y-5.5583
X3.4337Y-5.8583
X3.4707Y-2.2199
X3.4707Y-2.8199
X3.4805Y-3.5486
X3.4805Y-4.1486
X3.5337Y-5.5583
X3.5337Y-5.8583
X3.5707Y-2.2199
X3.5707Y-2.8199
X3.5805Y-3.5486
X3.5805Y-4.1486
X3.6024Y-4.311
X3.6024Y-4.4094
X3.6337Y-5.5583
X3.6337Y-5.8583
X3.6707Y-2.2199
X3.6707Y-2.8199
X3.6805Y-3.5486
X3.6805Y-4.1486
X3.7337Y-5.5583
X3.7337Y-5.8583
X3.7402Y-4.5669
X3.7697Y-2.9724
X3.7697Y-3.0709
X3.7707Y-2.2199
X3.7707Y-2.8199
X3.7805Y-3.5486
X3.7805Y-4.1486
X3.8307Y-4.3602
X3.8337Y-5.5583
X3.8337Y-5.8583
X3.8386Y-4.5669
X3.8707Y-2.2199
X3.8707Y-2.8199
X3.8805Y-3.5486
X3.8805Y-4.1486
X3.9337Y-5.5583
X3.9337Y-5.8583
X3.9707Y-2.2199
X3.9707Y-2.8199
X3.9805Y-3.5486
X3.9805Y-4.1486
X4.0059Y-4.5669
X4.0228Y-4.3602
X4.0337Y-5.5583
X4.0337Y-5.8583
X4.0707Y-2.2199
X4.0707Y-2.8199
X4.0805Y-3.5486
X4.0805Y-4.1486
X4.1043Y-4.5669
X4.1337Y-5.5583
X4.1337Y-5.8583
X4.1707Y-2.2199
X4.1707Y-2.8199
X4.1805Y-3.5486
X4.1805Y-4.1486
X4.2707Y-2.2199
X4.2707Y-2.8199
X4.2805Y-3.5486
X4.2805Y-4.1486
X4.3707Y-2.2199
X4.3707Y-2.8199
X4.3805Y-3.5486
X4.3805Y-4.1486
X4.4707Y-2.2199
X4.4707Y-2.8199
X4.4805Y-3.5486
X4.4805Y-4.1486
X4.5707Y-2.2199
X4.5707Y-2.8199
X4.5805Y-3.5486
X4.5805Y-4.1486
X4.6707Y-2.2199
X4.6707Y-2.8199
X4.6805Y-3.5486
X4.6805Y-4.1486
X5.0376Y-5.7283
X5.0492Y-3.6811
X5.0492Y-3.7795
X5.136Y-5.7283
X5.2116Y-3.5898
X5.2116Y-3.8898
X5.297Y-5.7283
X5.3116Y-3.5898
X5.3116Y-3.8898
X5.313Y-2.2195
X5.313Y-2.8195
X5.3955Y-5.7283
X5.4116Y-3.5898
X5.4116Y-3.8898
X5.413Y-2.2195
X5.413Y-2.8195
X5.5116Y-3.5898
X5.5116Y-3.8898
X5.513Y-2.2195
X5.513Y-2.8195
X5.5691Y-5.7283
X5.6116Y-3.5898
X5.6116Y-3.8898
X5.613Y-2.2195
X5.613Y-2.8195
X5.6675Y-5.7283
X5.7116Y-3.5898
X5.7116Y-3.8898
X5.713Y-2.2195
X5.713Y-2.8195
X5.8012Y-5.0366
X5.8012Y-5.3366
X5.8116Y-3.5898
X5.8116Y-3.8898
X5.813Y-2.2195
X5.813Y-2.8195
X5.8384Y-5.7382
X5.9012Y-5.0366
X5.9012Y-5.3366
X5.913Y-2.2195
X5.913Y-2.8195
X5.9368Y-5.7382
X6.0012Y-5.0366
X6.0012Y-5.3366
X6.013Y-2.2195
X6.013Y-2.8195
X6.1012Y-5.0366
X6.1012Y-5.3366
X6.113Y-2.2195
X6.113Y-2.8195
X6.2012Y-5.0366
X6.2012Y-5.3366
X6.213Y-2.2195
X6.213Y-2.8195
X6.3012Y-5.0366
X6.3012Y-5.3366
X6.313Y-2.2195
X6.313Y-2.8195
X6.4012Y-5.0366
X6.4012Y-5.3366
X6.413Y-2.2195
X6.413Y-2.8195
X6.5012Y-5.0366
X6.5012Y-5.3366
X6.513Y-2.2195
X6.513Y-2.8195
X6.613Y-2.2195
X6.613Y-2.8195
X6.6437Y-5.1378
X6.6437Y-5.2362
X6.713Y-2.2195
X6.713Y-2.8195
X6.811Y-2.9528
X6.811Y-3.0512
X6.813Y-2.2195
X6.813Y-2.8195
T5
X2.4498Y-5.935
X2.5498Y-5.935
X6.7018Y-3.4154
X6.7018Y-3.6713
X6.7018Y-3.9272
X6.7018Y-4.1831
X6.7018Y-4.4291
X6.8018Y-3.4154
X6.8018Y-3.6713
X6.8018Y-3.9272
X6.8018Y-4.1831
X6.8018Y-4.4291
T6
X2.4114Y-4.5374
X2.4114Y-4.6374
X2.4124Y-3.4793
X2.4124Y-3.5793
X2.4124Y-3.6793
X2.4124Y-3.7793
X2.4124Y-3.8793
X2.4124Y-3.9793
X2.4124Y-4.0793
X2.4124Y-4.1793
X2.835Y-6.1008
X2.835Y-6.2008
X2.935Y-6.1008
X2.935Y-6.2008
X3.035Y-6.1008
X3.035Y-6.2008
X3.1071Y-4.4177
X3.1071Y-4.5177
X3.135Y-6.1008
X3.135Y-6.2008
X3.2071Y-4.4177
X3.2071Y-4.5177
X3.235Y-6.1008
X3.235Y-6.2008
X3.3071Y-4.4177
X3.3071Y-4.5177
X3.335Y-6.1008
X3.335Y-6.2008
X3.435Y-6.1008
X3.435Y-6.2008
X3.535Y-6.1008
X3.535Y-6.2008
X3.635Y-6.1008
X3.635Y-6.2008
X3.735Y-6.1008
X3.735Y-6.2008
X4.4882Y-4.8228
X4.4882Y-4.9228
X4.4882Y-5.0228
X4.4882Y-5.1228
X4.4882Y-5.2228
X4.4882Y-5.3228
X5.3827Y-5.9772
X5.4372Y-6.089
X5.4537Y-4.8573
X5.4537Y-4.9573
X5.4537Y-5.0573
X5.4537Y-5.1573
X5.4537Y-5.2573
X5.4537Y-5.3573
X5.4917Y-5.9772
X5.5463Y-6.089
X5.6008Y-5.9772
X5.6553Y-6.089
X5.7098Y-5.9772
X5.7644Y-6.089
X5.8189Y-5.9772
X6.378Y-5.8744
X6.378Y-5.9744
X6.753Y-5.7756
X6.753Y-5.8756
X6.753Y-5.9756
X6.753Y-6.0756
T7
X2.3917Y-5.0197
X2.3917Y-5.1969
X2.3917Y-5.4331
X2.3917Y-5.6102
X2.6476Y-5.0197
X2.6476Y-5.1969
X2.6476Y-5.4331
X2.6476Y-5.6102
X3.5827Y-4.8803
X3.5827Y-5.1803
X4.7441Y-5.6472
X4.7441Y-5.9472
X6.063Y-3.8559
X6.063Y-4.1559
X6.3287Y-4.1906
X6.3287Y-4.4906
X6.4665Y-3.6689
X6.4665Y-3.9689
T8
X5.1087Y-6.0331
X6.0929Y-6.0331
T0
M30
